<?xml version="1.0" encoding="UTF-8"?> <!-- Generator: Adobe Illustrator 18.1.0, SVG Export Plug-In . SVG Version: 6.00 Build 0) --> <svg xmlns="http://www.w3.org/2000/svg" xmlns:xlink="http://www.w3.org/1999/xlink" id="Слой_1" x="0px" y="0px" viewBox="-259 261 480 480" xml:space="preserve"> <path fill="#087EE1" d="M190.4,627.3c-0.8-3.7-4.1-6.3-7.8-6.3H19.5c-3.8,0-7,2.6-7.8,6.3L6.1,653h189.8L190.4,627.3z"></path> <path fill="#087EE1" d="M125,589H77v32h48V589z"></path> <path fill="#0CBABA" d="M-43,541v176c0,8.8-7.2,16-16,16h-160c-8.8,0-16-7.2-16-16V541H-43z"></path> <path fill="#087EE1" d="M-59,429c0,8.8-7.2,16-16,16s-16-7.2-16-16s7.2-16,16-16S-59,420.2-59,429z"></path> <path d="M198.2,625.6c-1.6-7.4-8.1-12.6-15.6-12.6H133v-24c0-4.4-3.6-8-8-8V285c0-13.3-10.7-24-24-24s-24,10.7-24,24v296 c-4.4,0-8,3.6-8,8v24H19.5c-7.5,0-14,5.3-15.6,12.6l-22.6,105.7c-0.5,2.4,0.1,4.8,1.6,6.7c1.5,1.9,3.8,3,6.2,3h224 c2.4,0,4.7-1.1,6.2-3c1.5-1.9,2.1-4.3,1.6-6.7L198.2,625.6z M93,373h16v16H93 M93,341h16v16H93V341z M109,325H93v-16h16V325z M93,405h16v16H93V405z M93,285c0-4.4,3.6-8,8-8s8,3.6,8,8v8H93V285z M93,437h16v144H93V437z M85,597h32v16H85V597z M182.5,629 l3.4,16H16l3.4-16H182.5z M189,725v-16c0-4.4-3.6-8-8-8s-8,3.6-8,8v16h-16v-16c0-4.4-3.6-8-8-8s-8,3.6-8,8v16h-16v-16 c0-4.4-3.6-8-8-8s-8,3.6-8,8v16H93v-16c0-4.4-3.6-8-8-8s-8,3.6-8,8v16H61v-16c0-4.4-3.6-8-8-8s-8,3.6-8,8v16H29v-16c0-4.4-3.6-8-8-8 s-8,3.6-8,8v16H-1.1l13.7-64h176.8l13.7,64H189z"></path> <path d="M-27,501h-224c-4.4,0-8,3.6-8,8v32c0,4.4,3.6,8,8,8h8v168c0,13.3,10.7,24,24,24h160c13.3,0,24-10.7,24-24V549h8 c4.4,0,8-3.6,8-8v-32C-19,504.6-22.6,501-27,501z M-51,717c0,4.4-3.6,8-8,8h-160c-4.4,0-8-3.6-8-8v-82.9 c10.3,12.9,24.8,21.8,41,25.3c2.9,10.3,12.3,17.5,23,17.6h48c10.7-0.1,20.1-7.2,23-17.6c16.2-3.4,30.6-12.4,41-25.3V717z M-171,653 c0-4.4,3.6-8,8-8h48c4.4,0,8,3.6,8,8s-3.6,8-8,8h-48C-167.4,661-171,657.4-171,653z M-51,549v40c0,25.6-17.3,47.9-42.1,54.2 C-97,634.6-105.5,629-115,629h-48c-9.5,0-18,5.6-21.9,14.2c-24.8-6.3-42.1-28.7-42.1-54.2v-40 M-35,533h-208v-16h208V533z"></path> <path d="M-75,453c13.3,0,24-10.7,24-24s-10.7-24-24-24s-24,10.7-24,24S-88.3,453-75,453z M-75,421c4.4,0,8,3.6,8,8s-3.6,8-8,8 s-8-3.6-8-8S-79.4,421-75,421z"></path> <path d="M-147,445c4.4,0,8-3.6,8-8v-8c0-4.4-3.6-8-8-8s-8,3.6-8,8v8C-155,441.4-151.4,445-147,445z"></path> <path d="M-171,461h8c4.4,0,8-3.6,8-8s-3.6-8-8-8h-8c-4.4,0-8,3.6-8,8S-175.4,461-171,461z"></path> <path d="M-147,461c-4.4,0-8,3.6-8,8v8c0,4.4,3.6,8,8,8s8-3.6,8-8v-8C-139,464.6-142.6,461-147,461z"></path> <path d="M-131,461h8c4.4,0,8-3.6,8-8s-3.6-8-8-8h-8c-4.4,0-8,3.6-8,8S-135.4,461-131,461z"></path> <path d="M-219,373c4.4,0,8-3.6,8-8v-8c0-4.4-3.6-8-8-8s-8,3.6-8,8v8C-227,369.4-223.4,373-219,373z"></path> <path d="M-241.6,377.7c3.1,3,8.1,3,11.2-0.1s3.1-8.1,0.1-11.2l-5.7-5.7c-3.1-3-8.1-3-11.2,0.1s-3.1,8.1-0.1,11.2L-241.6,377.7z"></path> <path d="M-251,397h8c4.4,0,8-3.6,8-8s-3.6-8-8-8h-8c-4.4,0-8,3.6-8,8S-255.4,397-251,397z"></path> <path d="M-241.6,400.3l-5.7,5.7c-2.1,2-2.9,5-2.2,7.8c0.7,2.8,2.9,5,5.7,5.7c2.8,0.7,5.8-0.1,7.8-2.2l5.7-5.7c3-3.1,3-8.1-0.1-11.2 S-238.5,397.3-241.6,400.3z"></path> <path d="M-219,429c4.4,0,8-3.6,8-8v-8c0-4.4-3.6-8-8-8s-8,3.6-8,8v8C-227,425.4-223.4,429-219,429z"></path> <path d="M-202,417.3c2,2.1,5,2.9,7.8,2.2c2.8-0.7,5-2.9,5.7-5.7c0.7-2.8-0.1-5.8-2.2-7.8l-5.7-5.7c-3.1-3-8.1-3-11.2,0.1 s-3.1,8.1-0.1,11.2L-202,417.3z"></path> <path d="M-203,389c0,4.4,3.6,8,8,8h8c4.4,0,8-3.6,8-8s-3.6-8-8-8h-8C-199.4,381-203,384.6-203,389z"></path> <path d="M-202,380c2.1,0,4.2-0.8,5.7-2.3l5.7-5.7c3-3.1,3-8.1-0.1-11.2s-8.1-3.1-11.2-0.1l-5.7,5.7c-2.3,2.3-3,5.7-1.7,8.7 S-205.3,380-202,380z"></path> </svg> 