<?xml version="1.0" encoding="UTF-8"?> <!-- Generator: Adobe Illustrator 18.1.0, SVG Export Plug-In . SVG Version: 6.00 Build 0) --> <svg xmlns="http://www.w3.org/2000/svg" xmlns:xlink="http://www.w3.org/1999/xlink" id="icons" x="0px" y="0px" viewBox="-243 245 512 512" xml:space="preserve"> <polygon fill="#087EE1" points="-201,416.9 70,416.9 70,640 -201,644 "></polygon> <polygon fill="#087EE1" points="181.1,508 252,508 252,552 233.1,575 205.1,581 171,544.5 171,508 "></polygon> <path fill="#0CBABA" d="M212.9,340.9c-30.9,0-56,25.1-56,56s25.1,56,56,56s56-25.1,56-56S243.8,340.9,212.9,340.9z"></path> <path d="M-190.9,365c11,0,20-9,20-20c0-11-9-20-20-20s-20,9-20,20C-210.9,356-202,365-190.9,365z M-190.9,341c2.2,0,4,1.8,4,4 c0,2.2-1.8,4-4,4c-2.2,0-4-1.8-4-4C-194.9,342.8-193.1,341-190.9,341z"></path> <path d="M-143,365c11,0,20-9,20-20c0-11-9-20-20-20c-11,0-20,9-20,20C-163,356-154,365-143,365z M-143,341c2.2,0,4,1.8,4,4 c0,2.2-1.8,4-4,4c-2.2,0-4-1.8-4-4C-147,342.8-145.2,341-143,341z"></path> <path d="M9.1,365c11,0,20-9,20-20c0-11-9-20-20-20s-20,9-20,20C-10.9,356-1.9,365,9.1,365L9.1,365z M9.1,341c2.2,0,4,1.8,4,4 c0,2.2-1.8,4-4,4s-4-1.8-4-4C5.1,342.8,6.9,341,9.1,341L9.1,341z"></path> <path d="M57.1,365c11,0,20-9,20-20c0-11-9-20-20-20s-20,9-20,20C37.1,356,46.1,365,57.1,365z M57.1,341c2.2,0,4,1.8,4,4 c0,2.2-1.8,4-4,4s-4-1.8-4-4C53.1,342.8,54.9,341,57.1,341z"></path> <path d="M-98.9,365h64c4.4,0,8-3.6,8-8v-24c0-4.4-3.6-8-8-8h-64c-4.4,0-8,3.6-8,8v24C-106.9,361.4-103.4,365-98.9,365z M-90.9,341 h48v8h-48V341z"></path> <path d="M-210.9,421v224c0,4.4,3.6,8,8,8h272c4.4,0,8-3.6,8-8V421h0c4.4,0,8-3.6,8-8v-24c0-4.4-3.6-8-8-8h-288c-4.4,0-8,3.6-8,8v24 C-218.9,417.4-215.4,421-210.9,421z M61.1,637h-256V421h256V637z M-202.9,397h272v8h-272V397z"></path> <path d="M21.1,709h64c4.4,0,8-3.6,8-8v-17.5c6.8-2.4,12.1-7.8,14.5-14.5H165c0,0,0,0,0.1,0c30.9,0,56-25.1,56-56v-24.8 c22.3-3.8,39.4-23.1,39.8-46.4c0-0.3,0.2-0.5,0.2-0.8v-32c0-4.4-3.6-8-8-8c0,0,0,0-0.1,0s0,0-0.1,0h-7.9v-16c0-4.4-3.6-8-8-8 s-8,3.6-8,8v16h-8v-16c0-4.4-3.6-8-8-8s-8,3.6-8,8v16h-8v-16c0-4.4-3.6-8-8-8s-8,3.6-8,8v16H173c-4.4,0-8,3.6-8,8 c0,0.2,0.1,0.4,0.1,0.6v30.7c0,0.2-0.1,0.4-0.1,0.7c0,23.8,17.4,43.5,40.1,47.3V613c0,22-17.9,40-39.9,40c0,0,0,0-0.1,0h-56V317 c0-13.2-10.8-24-24-24h-304c-13.2,0-24,10.8-24,24v344c0,10.4,6.7,19.2,16,22.5V701c0,4.4,3.6,8,8,8h64c4.4,0,8-3.6,8-8v-16h160v16 C13.1,705.4,16.7,709,21.1,709L21.1,709z M181,541.5c0-0.2,0.1-0.3,0.1-0.5v-24h64v23.4c0,0.2-0.1,0.4-0.1,0.6c0,17.6-14.4,32-32,32 C195.5,573,181.2,558.9,181,541.5L181,541.5z M-226.9,317c0-4.4,3.6-8,8-8h304c4.4,0,8,3.6,8,8v344c0,4.4-3.6,8-8,8h-304 c-4.4,0-8-3.6-8-8V317z M-162.9,693h-48v-8h48V693z M77.1,685v8h-48v-8H77.1z"></path> <path d="M212.9,340.9c-30.9,0-56,25.1-56,56s25.1,56,56,56s56-25.1,56-56S243.8,340.9,212.9,340.9z M212.9,436.9 c-22.1,0-40-17.9-40-40s17.9-40,40-40s40,17.9,40,40S235,436.9,212.9,436.9z"></path> <path d="M242.7,395.3c-3.1-3.1-8.2-3.1-11.3,0l-8,8c-3.1,3.1-3.1,8.2,0,11.3c1.6,1.6,3.6,2.3,5.7,2.3s4.1-0.8,5.7-2.3l8-8 C245.9,403.5,245.9,398.4,242.7,395.3z"></path> <path d="M194.7,395.3c-3.1-3.1-8.2-3.1-11.3,0s-3.1,8.2,0,11.3l8,8c1.6,1.6,3.6,2.3,5.7,2.3s4.1-0.8,5.7-2.3c3.1-3.1,3.1-8.2,0-11.3 L194.7,395.3z"></path> <path d="M221.1,376.9c0-4.4-3.6-8-8-8s-8,3.6-8,8v8c0,4.4,3.6,8,8,8s8-3.6,8-8V376.9z"></path> </svg> 