<?xml version="1.0" encoding="UTF-8"?> <!-- Generator: Adobe Illustrator 18.1.0, SVG Export Plug-In . SVG Version: 6.00 Build 0) --> <svg xmlns="http://www.w3.org/2000/svg" xmlns:xlink="http://www.w3.org/1999/xlink" id="Layer_1" x="0px" y="0px" viewBox="0 0 1000 1000" xml:space="preserve"> <polyline fill="#0CBABA" points="286,366.7 250,358 234,316.7 242,283.3 260,258 298,258 318,250 318,358 "></polyline> <polygon fill="#0CBABA" points="686,250 733.3,258 760,283.3 770,316.7 750,341.7 733.3,366.7 686,366.7 "></polygon> <path fill="#087EE1" d="M733.3,683.3H566.7H500h-66.7H266.7c-36.8,0-66.7,29.9-66.7,66.7v233.3h600V750 C800,713.2,770.1,683.3,733.3,683.3z M500,883.3c-27.6,0-50-22.4-50-50s22.4-50,50-50c27.6,0,50,22.4,50,50S527.6,883.3,500,883.3z"></path> <circle fill="#087EE1" cx="500" cy="833.3" r="50"></circle> <g> <path d="M433.3,350c9.2,0,16.7,7.5,16.7,16.7h33.3c0-27.6-22.4-50-50-50s-50,22.4-50,50h33.3C416.7,357.5,424.1,350,433.3,350z"></path> <path d="M566.7,350c9.2,0,16.7,7.5,16.7,16.7h33.3c0-27.6-22.4-50-50-50s-50,22.4-50,50H550C550,357.5,557.5,350,566.7,350z"></path> <path d="M500,766.7c-36.8,0-66.7,29.9-66.7,66.7c0,36.8,29.9,66.7,66.7,66.7c36.8,0,66.7-29.9,66.7-66.7 C566.7,796.6,536.8,766.7,500,766.7z M500,866.7c-18.4,0-33.3-15-33.3-33.3c0-18.4,14.9-33.3,33.3-33.3c18.4,0,33.3,15,33.3,33.3 C533.3,851.7,518.4,866.7,500,866.7z"></path> <path d="M900,750c0-137.8-112.2-250-250-250h-18.2c5.9-5.2,11.5-10.8,16.8-16.7h18c46,0,83.3-37.4,83.3-83.3v-29.4 c20.1-13.5,33.3-36.4,33.3-62.3c0-26-13.3-49-33.5-62.4C747.6,110,636.5,0,500,0S252.4,110,250.2,245.9 c-20.2,13.5-33.5,36.4-33.5,62.4c0,41.3,33.6,75,75,75H303c7.8,46.2,31.4,87,65.1,116.7H350c-137.9,0-250,112.2-250,250v216.7H0 v33.3h116.7H200h600h83.3H1000v-33.3H900V750z M500,550c17.8,0,35.1-2.6,51.5-7l-51.5,103l-51.5-103C465,547.4,482.2,550,500,550z M623,533.3l-66.7,133.3H527l66.7-133.3H623z M716.7,400c0,25.3-18.9,46-43.3,49.3c11.5-20.1,19.7-42.3,23.6-66h11.3 c2.9,0,5.6-0.5,8.3-0.9V400z M708.3,350H700v-83.3h8.3c23,0,41.7,18.7,41.7,41.7S731.3,350,708.3,350z M500,33.3 c114.1,0,207.7,88.7,215.9,200.8c-2.5-0.3-5-0.8-7.5-0.8H697C681,138.9,598.9,66.7,500,66.7s-181,72.2-197,166.7h-11.4 c-2.6,0-5,0.5-7.5,0.8C292.3,122.1,385.9,33.3,500,33.3z M666.7,266.3c-120.3-4.2-200-53.4-200-99.6c0-9.2-7.5-16.7-16.7-16.7 c-9.2,0-16.7,7.5-16.7,16.7c0,41.7-43.1,76.2-99,82.3C343.2,165.4,414.1,100,500,100C591.8,100,666.4,174.6,666.7,266.3z M291.7,350c-23,0-41.7-18.7-41.7-41.7s18.7-41.7,41.7-41.7h8.3V350H291.7z M333.3,350v-67.6c52-4.5,96.2-29.6,118.3-64.8 c34.9,46.2,116.3,78.7,215.1,82V350c0,37.5-12.6,72.1-33.7,100H500v33.3h99.6c-9.6,7.2-19.9,13.3-30.9,18.3 c-43.7,19.9-93.6,19.9-137.4,0C373.6,475.4,333.3,417.4,333.3,350z M473,666.7h-29.4L377,533.3h29.4L473,666.7z M133.3,750 c0-116.1,91.8-210.9,206.6-216.2l66.4,132.8H266.7c-45.9,0-83.3,37.4-83.3,83.3v216.7h-50V750z M216.7,966.7V750 c0-27.6,22.4-50,50-50h166.7H500h66.7h166.7c27.6,0,50,22.4,50,50v216.7H216.7z M816.7,966.7V750c0-46-37.4-83.3-83.3-83.3H593.6 L660,533.8c114.8,5.3,206.6,100.1,206.6,216.2v216.7H816.7z"></path> <rect x="716.7" y="816.7" width="33.3" height="116.7"></rect> <rect x="716.7" y="750" width="33.3" height="33.3"></rect> <rect x="866.7" y="150" width="33.3" height="33.3"></rect> <rect x="866.7" y="216.7" width="33.3" height="33.3"></rect> <rect x="866.7" y="283.3" width="33.3" height="33.3"></rect> <rect x="100" y="350" width="33.3" height="33.3"></rect> <rect x="100" y="416.7" width="33.3" height="33.3"></rect> <rect x="100" y="483.3" width="33.3" height="33.3"></rect> </g> </svg> 