<?xml version="1.0" encoding="UTF-8"?> <!-- Generator: Adobe Illustrator 18.1.0, SVG Export Plug-In . SVG Version: 6.00 Build 0) --> <svg xmlns="http://www.w3.org/2000/svg" xmlns:xlink="http://www.w3.org/1999/xlink" id="Capa_1" x="0px" y="0px" viewBox="0 0 1000 1000" xml:space="preserve"> <polygon fill="#0CBABA" points="742,138 848,244 902,342 932,500 910,624 828,782 664,902 456,940 246,853 122,710 72,539 86,372 162,224 278,128 396,80 480,66 466,120 362,156 262,234 178,330 144,462 144,592 184,696 262,786 368,844 484,872 586,864 668,836 732,776 806,708 846,632 864,548 858,448 816,318 702,210 "></polygon> <polygon fill="#087EE1" points="500,24 806,24 560,458 712,466 318,940 458,536 296,532 "></polygon> <path d="M760.9,135.6L825,24.3c2.9-5,2.9-11.2,0-16.2c-2.9-5-8.2-8.1-14-8.1H500c-6.6,0-12.6,4-15,10.2L467.8,53 c-233.9,16.6-416,211.4-416,447c0,172.9,99.2,329.6,254.1,404.1L277.5,978c-2.8,7.4,0.1,15.8,6.9,19.8c2.6,1.5,5.4,2.2,8.2,2.2 c4.7,0,9.3-2,12.5-5.8l56.5-67.8c44.6,14.5,91.1,21.8,138.4,21.8c247.1,0,448.2-201,448.2-448.2 C948.2,355.1,878.4,219.8,760.9,135.6z M739.3,458.6c-2.7-5.7-8.4-9.3-14.7-9.3H579.9l129.9-225.2 c85.9,65.5,136.9,167.5,136.9,275.9c0,191.1-155.5,346.7-346.7,346.7c-22.4,0-44.8-2.2-66.6-6.4l303.7-364.4 C741.1,471,742,464.3,739.3,458.6z M511,32.4h272l-245.2,425c-2.9,5-2.9,11.2,0,16.2c2.9,5,8.2,8.1,14,8.1H690L344.5,896.3 c0-0.6,0-1.2-0.1-1.8l136.2-354.2c1.9-5,1.3-10.6-1.8-15c-3-4.4-8-7-13.4-7H316.6L511,32.4z M279.2,543.6c3,4.5,8,7.1,13.4,7.1 h149.2l-99.3,258.1C227.1,749.9,153.3,630.4,153.3,500c0-83.2,29.9-163.7,84.3-226.5c48.9-56.6,114.6-95.7,186.8-111.8L277.6,528.5 C275.6,533.5,276.2,539.2,279.2,543.6z M84.2,500c0-213.2,160.8-390.5,370.1-413.3l-15.7,39.2c-87.4,14.2-167.4,59-225.6,126.4 C153.7,321,121,409,121,500c0,143.8,81.9,275.4,209.9,339.3l-13.2,34.4C175.2,804.2,84.2,659.5,84.2,500z M500,915.8 c-39.5,0-78.4-5.5-115.9-16.4l25.9-31.1c29.3,7.1,59.5,10.8,90,10.8c209,0,379-170,379-379c0-119.9-57-232.8-152.9-304.2l18.5-32 C852,242,915.8,366.6,915.8,500C915.8,729.3,729.3,915.8,500,915.8z"></path> </svg> 