<?xml version="1.0" encoding="UTF-8"?> <!-- Generator: Adobe Illustrator 18.1.0, SVG Export Plug-In . SVG Version: 6.00 Build 0) --> <svg xmlns="http://www.w3.org/2000/svg" xmlns:xlink="http://www.w3.org/1999/xlink" id="Layer_1" x="0px" y="0px" viewBox="0 0 1000 1000" xml:space="preserve"> <g> <polygon fill="#0CBABA" points="705.4,655.1 641.7,711.3 550.4,720.3 668.7,984.2 724.8,903.8 822.1,915.5 "></polygon> <polygon fill="#0CBABA" points="178.5,915.5 275.9,903.8 331.9,984.2 450.2,720.3 364.7,717 295.2,655.1 "></polygon> </g> <path fill="#087EE1" d="M500,484l-91,50.9c-9.5,5.3-20.8-2.9-18.7-13.6L410.6,419L334,348.2c-8-7.4-3.6-20.7,7.1-22L444.8,314 l43.7-94.7c4.5-9.9,18.6-9.9,23.1,0l43.7,94.7l103.6,12.3c10.8,1.3,15.1,14.6,7.1,22L589.4,419l20.3,102.3 c2.1,10.6-9.2,18.9-18.7,13.6L500,484z"></path> <path d="M613.4,152.7c7.8,3.9,17.2,0.8,21.2-7c3.9-7.8,0.8-17.2-7-21.2c-110-55.6-242.5-34.3-329.7,52.9 c-101.4,101.4-111.5,263-23.6,375.9c3.1,4,7.8,6.1,12.4,6.1c3.4,0,6.8-1.1,9.7-3.3c6.9-5.3,8.1-15.2,2.8-22.1 c-78.2-100.4-69.1-244.1,21-334.3C397.8,122.2,515.6,103.3,613.4,152.7z"></path> <path d="M732.3,243.5c-7.8,3.9-10.9,13.4-7,21.2c49.4,97.8,30.5,215.6-47.1,293.2C588.2,648,444.4,657,344,578.8 c-6.9-5.3-16.8-4.1-22.1,2.8c-5.3,6.9-4.1,16.8,2.8,22.1c51.5,40,113,59.7,174.3,59.7c73.3,0,146.4-28.1,201.6-83.3 c87.2-87.2,108.4-219.7,52.9-329.7C749.6,242.7,740.1,239.6,732.3,243.5z"></path> <path d="M666.7,188.9c3.9,3.5,7.8,7.1,11.6,10.9c3.7,3.7,7.4,7.6,10.9,11.6c3.1,3.5,7.5,5.3,11.8,5.3c3.7,0,7.4-1.3,10.4-3.9 c6.5-5.8,7.1-15.7,1.4-22.2c-3.9-4.4-8-8.8-12.2-13c-4.2-4.2-8.5-8.3-13-12.2c-6.5-5.8-16.5-5.1-22.2,1.4 C659.6,173.2,660.2,183.1,666.7,188.9z"></path> <path d="M871.2,351.2l-20.7-34c-2.7-4.5-3.8-9.8-3-15l6.2-39.3c3.2-20-5.1-39.8-21.4-51.8l-32.1-23.4c-4.2-3.1-7.3-7.6-8.5-12.7 l-9.4-38.7c-4.8-19.6-19.9-34.8-39.5-39.5L704,87.5c-5.1-1.2-9.6-4.3-12.7-8.5L668,46.9c-11.9-16.4-31.7-24.6-51.8-21.5l-39.3,6.2 c-5.2,0.8-10.5-0.2-15-3l-34-20.7c-17.2-10.5-38.7-10.5-55.9,0l-34,20.7c-4.5,2.7-9.8,3.8-15,3l-39.3-6.2 c-20-3.1-39.8,5.1-51.8,21.5L308.7,79c-3.1,4.2-7.6,7.3-12.7,8.5l-38.7,9.4c-19.6,4.8-34.8,19.9-39.5,39.5l-9.4,38.7 c-1.2,5.1-4.3,9.6-8.5,12.7l-32.1,23.4c-16.4,11.9-24.6,31.7-21.5,51.8l6.2,39.3c0.8,5.2-0.2,10.5-3,15l-20.7,34 c-10.5,17.2-10.5,38.7,0,55.9l20.7,34c2.7,4.5,3.8,9.8,3,15l-6.2,39.3c-3.2,20,5.1,39.8,21.4,51.8l32.1,23.4 c4.2,3.1,7.3,7.6,8.5,12.7l9.4,38.7c4.8,19.6,19.9,34.8,39.5,39.5l16.1,3.9L164.2,909c-2.3,5.2-1.7,11.2,1.7,15.8 c3.4,4.6,8.9,7,14.6,6.3l87.9-10.5l50.7,72.6c3,4.2,7.8,6.7,12.9,6.7c0.5,0,1,0,1.5-0.1c5.7-0.5,10.6-4.1,12.9-9.2l111.6-249 l14.1,8.6c8.6,5.3,18.3,7.9,27.9,7.9s19.3-2.6,27.9-7.9l14.7-8.9l111.8,249.3c2.3,5.2,7.3,8.7,12.9,9.2c0.5,0,1,0.1,1.5,0.1 c5.1,0,10-2.5,12.9-6.7l50.7-72.6l87.9,10.5c5.6,0.7,11.2-1.7,14.6-6.3s4-10.6,1.7-15.8L727.2,665.1l15.5-3.8 c19.6-4.8,34.8-19.9,39.5-39.5l9.4-38.7c1.2-5.1,4.3-9.6,8.5-12.7l32.1-23.4c16.4-11.9,24.6-31.7,21.5-51.8l-6.2-39.3 c-0.8-5.2,0.2-10.5,3-15l20.7-34l0,0C881.7,389.8,881.7,368.4,871.2,351.2z M328.9,952.4l-40.1-57.6c-3.3-4.8-9-7.3-14.8-6.6 l-69.7,8.3l99.6-222.1c1.8,1.3,3.5,2.9,4.8,4.8l23.4,32.1c2.2,3.1,4.7,5.8,7.4,8.3l-52.4,116.9c-3.6,7.9,0,17.3,7.9,20.8 c2.1,0.9,4.3,1.4,6.4,1.4c6,0,11.8-3.5,14.4-9.3L368,732.9c5.1,0.7,10.4,0.7,15.7-0.1l39.3-6.2c2.4-0.4,4.7-0.3,7,0L328.9,952.4z M726.7,888.2c-5.8-0.7-11.5,1.9-14.8,6.6l-40.1,57.6L570.5,726.6c2.1-0.3,4.3-0.3,6.4,0l39.3,6.2c5.5,0.9,11,0.8,16.4,0l52.3,116.6 c2.6,5.8,8.4,9.3,14.4,9.3c2.2,0,4.3-0.4,6.4-1.4c7.9-3.6,11.5-12.9,7.9-20.8L661,719.2c2.5-2.4,4.9-5,7-7.8l23.4-32.1 c1.5-2,3.3-3.8,5.3-5.2l99.7,222.5L726.7,888.2z M844.3,390.6l-20.7,34c-6.6,10.8-9.2,23.7-7.2,36.3l6.2,39.3 c1.3,8.3-2.1,16.4-8.9,21.4L781.6,545c-10.3,7.5-17.6,18.4-20.6,30.8l-9.4,38.7c-2,8.1-8.2,14.4-16.3,16.3l-38.7,9.4 c-12.4,3-23.3,10.3-30.8,20.6l-23.4,32.1c-4.9,6.8-13.1,10.2-21.4,8.9l-39.3-6.2c-12.6-2-25.4,0.6-36.3,7.2l-34,20.7 c-7.1,4.3-16,4.3-23.1,0l-34-20.7c-8.5-5.2-18.2-7.8-28-7.8c-2.8,0-5.6,0.2-8.3,0.7l-39.3,6.2c-8.3,1.3-16.4-2.1-21.4-8.9 l-23.4-32.1c-7.5-10.3-18.4-17.6-30.8-20.6l-38.7-9.4c-8.1-2-14.4-8.2-16.3-16.3l-9.4-38.7c-3-12.4-10.3-23.3-20.6-30.8l-32.1-23.4 c-6.8-4.9-10.2-13.1-8.9-21.4l6.2-39.3c2-12.6-0.6-25.4-7.2-36.3l-20.7-34c-4.3-7.1-4.3-16,0-23.1l20.7-34 c6.6-10.8,9.2-23.7,7.2-36.3l-6.2-39.3c-1.3-8.3,2.1-16.4,8.9-21.4l32.1-23.4c10.3-7.5,17.6-18.4,20.6-30.8l9.4-38.7 c2-8.1,8.2-14.4,16.3-16.3l38.7-9.4c12.4-3,23.3-10.3,30.8-20.6l23.4-32.1c4.9-6.8,13.1-10.2,21.4-8.9l39.3,6.2 c12.6,2,25.4-0.6,36.3-7.2l34-20.7c7.1-4.3,16-4.3,23.1,0l34,20.7c10.8,6.6,23.7,9.2,36.3,7.2l39.3-6.2c8.3-1.3,16.4,2.1,21.4,8.9 l23.4,32.1c7.5,10.3,18.4,17.6,30.8,20.6l38.7,9.4c8.1,2,14.4,8.2,16.3,16.3l9.4,38.7c3,12.4,10.3,23.3,20.6,30.8l32.1,23.4 c6.8,4.9,10.2,13.1,8.9,21.4l-6.2,39.3c-2,12.6,0.6,25.4,7.2,36.3l20.7,34C848.7,374.7,848.7,383.5,844.3,390.6z"></path> <path d="M323.3,359.8l70.1,64.8l-18.6,93.7c-2.2,11,2.1,22,11.2,28.6c5,3.6,10.8,5.5,16.7,5.5c4.8,0,9.5-1.2,13.9-3.7L500,502 l83.3,46.6c9.8,5.5,21.6,4.8,30.6-1.8c9.1-6.6,13.4-17.6,11.2-28.6l-18.6-93.7l70.1-64.8c8.3-7.6,11.2-19,7.7-29.7 c-3.5-10.7-12.6-18.2-23.7-19.5l-94.8-11.2l-40-86.7c-4.7-10.2-14.6-16.5-25.9-16.5c-11.2,0-21.2,6.3-25.9,16.5l-40,86.7l-94.8,11.2 c-11.2,1.3-20.3,8.8-23.7,19.5C312.1,340.8,315.1,352.1,323.3,359.8z M446.6,329.6c5.4-0.6,10.2-4.1,12.5-9l40.9-88.7l40.9,88.7 c2.3,5,7,8.4,12.5,9l97,11.5l-71.7,66.3c-4,3.7-5.8,9.3-4.8,14.6l19,95.8l-85.3-47.7c-2.4-1.3-5-2-7.7-2s-5.3,0.7-7.7,2L407,517.9 l19-95.8c1.1-5.4-0.7-10.9-4.8-14.6l-71.7-66.3L446.6,329.6z"></path> </svg> 