<?xml version="1.0" encoding="UTF-8"?> <!-- Generator: Adobe Illustrator 18.1.0, SVG Export Plug-In . SVG Version: 6.00 Build 0) --> <svg xmlns="http://www.w3.org/2000/svg" xmlns:xlink="http://www.w3.org/1999/xlink" id="Capa_1" x="0px" y="0px" viewBox="0 0 1000 1000" xml:space="preserve"> <polygon fill="#0CBABA" points="500,150 640,188 730,268 792,435 764,574 660,688 522,742 400,726 294.4,650 212,500 212,378 266,264 370,194.7 510.3,151 472,20 311.7,137.9 178,192 130,224 112,290 130,386 134,474 112,572 108.5,641.5 189.7,712 294.4,742 416,844 500,874 590,842 668,776 760,730 856,686 884,602 872,477 884,324 879.5,228.5 754,166 648,114 556,40 472,20 "></polygon> <path display="none" fill="#0CBABA" d="M482,12l90,28l94,88l134,48l74,50l14,100l-24,122.3L888,648l-40,40l-159.7,70.6L584,850 l-72,30l-78-26l-102-80l-179.4-60.2L120,646l14-132l4-174.5l-28-84.4l52-57.1l124-42l84-58l124.7-86l4.3,154.7l35-6.7l112,38l94,94 l34,118l-10,130l-26,48c0,0-114,104-120,104S270,514,270,514s40-280.2,60-276.1C350,242,476,170,476,170L482,12z"></path> <path fill="#087EE1" d="M671.1,379.3H552.9l-36.5-112.4c-3-9.1-12.7-14-21.8-11c-5.2,1.7-9.3,5.8-11,11l-36.6,112.4H328.9 c-9.5,0-17.2,7.7-17.2,17.2c0,5.5,2.6,10.7,7.1,13.9l95.6,69.5l-36.5,112.4c-2.9,9.1,2,18.8,11.1,21.7c5.3,1.7,11,0.8,15.5-2.4 l95.6-69.5l95.6,69.4c7.7,5.6,18.5,3.9,24.1-3.8c3.2-4.5,4.2-10.2,2.4-15.5L585.6,480l95.6-69.5c7.7-5.6,9.4-16.4,3.8-24.1 C681.7,381.9,676.6,379.3,671.1,379.3z"></path> <path d="M888.3,224.1c-25.6-44.2-77.1-60.6-126.9-76.4c-24.8-6.8-48.8-16.2-71.7-28.1c-20.7-13.4-40-29.1-57.4-46.6 C595.3,38.8,553.3,0,500,0s-95.3,38.8-132.2,73.1c-17.4,17.5-36.7,33.1-57.4,46.6c-22.8,11.8-46.9,21.2-71.7,28 c-49.8,15.8-101.3,32.2-126.9,76.4C87,266.8,98.2,318.9,109,369.2c6.5,25.9,10.4,52.4,11.7,79c-1.2,26.7-5.1,53.2-11.7,79 c-10.7,50.4-22,102.5,2.7,145.1c19.7,29.6,49.1,51.3,83.1,61.4l-105,134.9c-5.8,7.5-4.5,18.3,3,24.2c3.6,2.8,8.2,4.1,12.7,3.5 L228.9,881l30.4,106.5c1.8,6.2,6.9,10.9,13.3,12.2c1.1,0.2,2.2,0.3,3.3,0.3c5.3,0,10.3-2.4,13.6-6.7l110.1-141.6 c27.1,26.4,62.7,42.3,100.4,44.8c37.7-2.6,73.3-18.4,100.4-44.8l110.1,141.6c3.3,4.2,8.3,6.7,13.6,6.7c1.1,0,2.2-0.1,3.3-0.3 c6.4-1.2,11.5-5.9,13.3-12.2L771.1,881l123.3,15.4c9.4,1.2,18.1-5.5,19.3-15c0.6-4.5-0.7-9.1-3.5-12.7L805.3,733.9 c34-10.2,63.4-31.9,83-61.4c24.7-42.7,13.5-94.8,2.7-145.2c-6.5-25.9-10.4-52.3-11.7-79c1.2-26.7,5.1-53.2,11.7-79 C901.7,318.9,913,266.8,888.3,224.1z M283.1,945.4l-25.2-88c-2.3-8.2-10.3-13.4-18.7-12.4L142.7,857l86.5-111.2l9.5,3.1 c24.8,6.8,48.8,16.2,71.6,28c20.7,13.4,40,29.1,57.4,46.6l5.9,5.5L283.1,945.4z M857.4,857L760.8,845c-8.4-1.1-16.4,4.2-18.7,12.4 l-25.2,88l-90.6-116.5l5.9-5.5c17.4-17.5,36.7-33.1,57.4-46.6c22.8-11.8,46.9-21.2,71.7-28l9.5-3.1L857.4,857z M857.3,534.5 c9.9,46,19.2,89.5,1.2,120.7c-19,32.7-61.9,46.3-107.5,60.8c-27.2,7.6-53.5,17.9-78.5,31c-23,14.7-44.3,31.9-63.6,51.2 c-35.5,32.9-69,63.9-108.8,63.9s-73.3-31-108.8-63.9c-19.3-19.3-40.6-36.4-63.6-51.2c-25-13.1-51.3-23.5-78.5-31 c-45.6-14.5-88.6-28.1-107.5-60.8c-18-31.2-8.7-74.7,1.2-120.7c7.1-28.2,11.3-57.1,12.4-86.2c-1.2-29.1-5.3-58-12.4-86.2 c-9.9-46-19.2-89.5-1.2-120.7c19-32.7,61.9-46.3,107.5-60.8c27.2-7.6,53.5-17.9,78.5-31c23-14.7,44.3-31.9,63.6-51.2 c35.5-32.9,69-63.9,108.8-63.9s73.3,31,108.8,63.9c19.3,19.3,40.6,36.4,63.6,51.2c25,13.1,51.3,23.5,78.5,31 c45.6,14.5,88.6,28.1,107.5,60.8c18,31.2,8.7,74.7-1.2,120.7c-7.1,28.2-11.3,57.1-12.4,86.2C846,477.4,850.2,506.3,857.3,534.5z"></path> <path d="M500,137.9c-171.4,0-310.3,138.9-310.3,310.3S328.6,758.6,500,758.6s310.3-138.9,310.3-310.3 C810.1,277,671.3,138.1,500,137.9z M500,724.1c-152.4,0-275.9-123.5-275.9-275.9S347.6,172.4,500,172.4s275.9,123.5,275.9,275.9 C775.7,600.6,652.3,724,500,724.1z"></path> <path d="M671.1,362.1H565.5l-32.8-100.5c-5.9-18.1-25.4-27.9-43.5-22c-10.4,3.4-18.6,11.6-22,22l-32.7,100.5H328.9 c-19.1,0-34.5,15.4-34.5,34.5c0,11,5.3,21.4,14.2,27.9l85.4,62.1L361.4,587c-5.9,18.1,4,37.6,22.1,43.4c10.5,3.4,22,1.6,30.9-4.9 l85.5-62.1l85.5,62.1c12,8.9,28.5,8.9,40.6,0c12.2-8.7,17.3-24.3,12.5-38.6l-32.6-100.5l85.4-62.1c15.4-11.2,18.8-32.8,7.6-48.2 C692.4,367.3,682.1,362.1,671.1,362.1z M671.1,396.6L575.5,466c-6.1,4.4-8.6,12.2-6.3,19.3l36.5,112.4l-95.6-69.4 c-6-4.4-14.2-4.4-20.3,0l-95.6,69.4l36.5-112.4c2.3-7.1-0.2-14.9-6.3-19.3l-95.6-69.4h118.2c7.5,0,14.1-4.8,16.4-11.9L500,272.3 l36.5,112.4c2.3,7.1,8.9,11.9,16.4,11.9L671.1,396.6z"></path> </svg> 