<?xml version="1.0" encoding="UTF-8"?> <!-- Generator: Adobe Illustrator 18.1.0, SVG Export Plug-In . SVG Version: 6.00 Build 0) --> <svg xmlns="http://www.w3.org/2000/svg" xmlns:xlink="http://www.w3.org/1999/xlink" id="Capa_1" x="0px" y="0px" viewBox="0 0 1000 1000" xml:space="preserve"> <g> <g> <path fill="#087EE1" d="M734.8,375.8H265.2c-8.1,0-14.6,6.6-14.6,14.6v281.8c0,8.1,6.6,14.6,14.6,14.6h469.7 c8.1,0,14.6-6.6,14.6-14.6V390.4C749.5,382.3,742.9,375.8,734.8,375.8z"></path> </g> </g> <g> <g> <path fill="#0CBABA" d="M265.2,125.3c-25.3,0-46,20.6-46,46s20.6,46,46,46s46-20.6,46-46S290.5,125.3,265.2,125.3z"></path> </g> </g> <g> <g> <path fill="#0CBABA" d="M421.7,125.3c-25.3,0-46,20.6-46,46s20.6,46,46,46c25.3,0,46-20.6,46-46S447.1,125.3,421.7,125.3z"></path> </g> </g> <g> <g> <path fill="#0CBABA" d="M578.3,125.3c-25.3,0-46,20.6-46,46s20.6,46,46,46c25.3,0,46-20.6,46-46S603.6,125.3,578.3,125.3z"></path> </g> </g> <g> <g> <path fill="#0CBABA" d="M734.8,125.3c-25.3,0-46,20.6-46,46s20.6,46,46,46c25.3,0,46-20.6,46-46S760.2,125.3,734.8,125.3z"></path> </g> </g> <g> <g> <path d="M813.1,0H186.9c-34,0-61.6,27.6-61.6,61.6v829.8c0,28.9,20,53.3,47,59.8v34.1c0,8.1,6.6,14.6,14.6,14.6 s14.6-6.6,14.6-14.6V953h597v32.3c0,8.1,6.6,14.6,14.6,14.6s14.6-6.6,14.6-14.6v-34.1c26.9-6.6,47-30.9,47-59.8V61.6 C874.7,27.6,847.1,0,813.1,0z M845.5,62.6h-32.3c-8.1,0-14.6,6.6-14.6,14.6s6.6,14.6,14.6,14.6h32.3v690.9h-596 c-8.1,0-14.6,6.6-14.6,14.6s6.6,14.6,14.6,14.6h596v79.3c0,17.8-14.5,32.3-32.3,32.3H186.9c-17.8,0-32.3-14.5-32.3-32.3v-79.3 h32.3c8.1,0,14.6-6.6,14.6-14.6s-6.6-14.6-14.6-14.6h-32.3V91.9h596c8.1,0,14.6-6.6,14.6-14.6c0-8.1-6.6-14.6-14.6-14.6h-596v-1 c0-17.8,14.5-32.3,32.3-32.3h626.3c17.8,0,32.3,14.5,32.3,32.3V62.6z"></path> </g> </g> <g> <g> <path d="M421.7,125.3c-25.3,0-46,20.6-46,46s20.6,46,46,46c25.3,0,46-20.6,46-46S447.1,125.3,421.7,125.3z M421.7,187.9 c-9.2,0-16.7-7.5-16.7-16.7s7.5-16.7,16.7-16.7c9.2,0,16.7,7.5,16.7,16.7C438.4,180.4,430.9,187.9,421.7,187.9z"></path> </g> </g> <g> <g> <path d="M265.2,125.3c-25.3,0-46,20.6-46,46s20.6,46,46,46s46-20.6,46-46S290.5,125.3,265.2,125.3z M265.2,187.9 c-9.2,0-16.7-7.5-16.7-16.7s7.5-16.7,16.7-16.7c9.2,0,16.7,7.5,16.7,16.7C281.8,180.4,274.3,187.9,265.2,187.9z"></path> </g> </g> <g> <g> <path d="M734.8,125.3c-25.3,0-46,20.6-46,46s20.6,46,46,46c25.3,0,46-20.6,46-46S760.2,125.3,734.8,125.3z M734.8,187.9 c-9.2,0-16.7-7.5-16.7-16.7s7.5-16.7,16.7-16.7c9.2,0,16.7,7.5,16.7,16.7C751.5,180.4,744,187.9,734.8,187.9z"></path> </g> </g> <g> <g> <path d="M578.3,125.3c-25.3,0-46,20.6-46,46s20.6,46,46,46c25.3,0,46-20.6,46-46S603.6,125.3,578.3,125.3z M578.3,187.9 c-9.2,0-16.7-7.5-16.7-16.7s7.5-16.7,16.7-16.7c9.2,0,16.7,7.5,16.7,16.7C594.9,180.4,587.5,187.9,578.3,187.9z"></path> </g> </g> <g> <g> <path d="M781.8,250.5H218.2c-16.7,0-30.3,13.6-30.3,30.3v438.4c0,16.7,13.6,30.3,30.3,30.3h563.6c16.7,0,30.3-13.6,30.3-30.3 V280.8C812.1,264.1,798.5,250.5,781.8,250.5z M782.8,719.2c0,0.6-0.5,1-1,1H218.2c-0.6,0-1-0.5-1-1V280.8c0-0.6,0.5-1,1-1h563.6 c0.6,0,1,0.5,1,1V719.2z"></path> </g> </g> <g> <g> <path d="M734.8,375.8H265.2c-8.1,0-14.6,6.6-14.6,14.6v281.8c0,8.1,6.6,14.6,14.6,14.6h469.7c8.1,0,14.6-6.6,14.6-14.6V390.4 C749.5,382.3,742.9,375.8,734.8,375.8z M279.8,657.6V405.1h440.4v252.5H279.8z"></path> </g> </g> <g> <g> <path d="M734.8,313.1H265.2c-8.1,0-14.6,6.6-14.6,14.6s6.6,14.6,14.6,14.6h469.7c8.1,0,14.6-6.6,14.6-14.6 S742.9,313.1,734.8,313.1z"></path> </g> </g> <g> <g> <path d="M604.3,442.7c-5.7-5.7-15-5.7-20.7,0L427,599.2c-5.7,5.7-5.7,15,0,20.7c2.9,2.9,6.6,4.3,10.4,4.3c3.7,0,7.5-1.4,10.4-4.3 l156.6-156.6C610,457.7,610,448.4,604.3,442.7z"></path> </g> </g> <g> <g> <path d="M479,458.3c-5.7-5.7-15-5.7-20.7,0L395.7,521c-5.7,5.7-5.7,15,0,20.7c2.9,2.9,6.6,4.3,10.4,4.3s7.5-1.4,10.4-4.3L479,479 C484.8,473.3,484.8,464,479,458.3z"></path> </g> </g> </svg> 