<?xml version="1.0" encoding="UTF-8"?> <!-- Generator: Adobe Illustrator 18.1.0, SVG Export Plug-In . SVG Version: 6.00 Build 0) --> <svg xmlns="http://www.w3.org/2000/svg" xmlns:xlink="http://www.w3.org/1999/xlink" id="Слой_1" x="0px" y="0px" viewBox="0 0 1000 1000" xml:space="preserve"> <path fill="#087EE1" d="M953.8,813.7c38.1,38.1,38.1,100,0,138.1c-38.1,38.1-100,38.1-138.1,0L554.5,668.1L669.6,553L953.8,813.7z"></path> <path fill="#0CBABA" d="M612.1,500.3l57.5,52.8L554.5,668.1l-52.8-57.4L612.1,500.3z"></path> <path d="M679.4,303c-10.8,0-19.5,8.7-19.5,19.5c0,10.8,8.8,19.5,19.5,19.5c10.8,0,19.5-8.7,19.5-19.5 C698.9,311.8,690.2,303,679.4,303z"></path> <path d="M324.5,657.9c-10.8,0-19.5,8.8-19.5,19.5c0,10.8,8.7,19.5,19.5,19.5c10.8,0,19.5-8.7,19.5-19.5 C344,666.6,335.3,657.9,324.5,657.9z"></path> <path d="M977.7,120.2c-6.6-1.5-13.5,0.5-18.3,5.3l-81,81.6h-38.8l-42.7-44.3v-39.4l79.8-81c4.7-4.8,6.6-11.7,5.1-18.2 c-1.6-6.5-6.4-11.8-12.8-14C848.9,3.4,828,0,806.6,0C743,0,685.2,29.7,648.1,81.4c-34.8,48.4-45.5,107.8-30.1,164.5L474.1,389.8 L234.4,149.6v-47.1c0-6.9-3.6-13.2-9.5-16.7L86.8,2.8c-7.7-4.6-17.5-3.4-23.9,2.9L7.7,61c-6.3,6.3-7.5,16.2-2.9,23.9l82.9,138.1 c3.5,5.9,9.9,9.5,16.7,9.5l47.1,0l239.7,240.2L247.9,616c-56.8-15.4-116.1-4.6-164.6,30.2C31.6,683.3,2,741.1,2,804.7 C2,826,5.4,847,12.1,867c2.2,6.4,7.5,11.3,14.1,12.8c6.6,1.5,13.5-0.5,18.3-5.3l81-81.6h39l44.5,44.5v39l-81.6,81 c-4.8,4.8-6.8,11.7-5.3,18.3c1.5,6.6,6.4,11.9,12.8,14.1c20,6.8,41,10.2,62.4,10.2c63.6,0,121.4-29.6,158.5-81.3 c34.8-48.4,45.5-107.8,30.2-164.6L501.1,639l26.4,28.6l-12.1,12.1c-7.6,7.6-7.6,20,0,27.6c7.6,7.6,20,7.6,27.6,0l11-11l247.4,268.7 c0.2,0.2,0.4,0.4,0.6,0.6c45.8,45.8,119.9,45.8,165.7,0c45.7-45.7,45.7-120,0-165.7c-0.2-0.2-0.4-0.4-0.6-0.6L697.9,552.4l10.8-10.8 c7.6-7.6,7.6-20,0-27.6s-20-7.6-27.6,0l-12,12l-28.7-26.3L756,384c16.4,4.4,33.4,6.6,50.6,6.6c107.7,0,195.3-87.6,195.3-195.3 c0-21.3-3.4-42.3-10.2-62.4C989.6,126.5,984.2,121.7,977.7,120.2z M173.4,199.1c-3.7-3.7-8.6-5.5-13.8-5.5l-44.2,0L46.1,77.8 l33.7-33.7l115.5,69.3v44.2c0,5.2,2.1,10.1,5.7,13.8l245.4,246L418.8,445L173.4,199.1z M670.2,580.1l270.1,247.7 c30.2,30.5,30.1,79.8-0.3,110.2c-30.4,30.4-79.7,30.5-110.2,0.3L581.6,668.7L670.2,580.1z M641.4,553.6l-86.3,86.3l-26.4-28.6l84-84 L641.4,553.6z M806.6,351.6c-17.1,0-33.9-2.7-49.9-8.1c-7-2.4-14.8-0.5-20,4.7C638.7,446,427.8,657,350.1,734.7 c-5.2,5.2-7.1,13-4.7,20.1c16.2,48.2,8.5,99.6-21.3,141.1c-29.7,41.3-75.9,65.1-126.8,65.1c-5.7,0-11.4-0.3-17-0.9l62-61.6 c3.7-3.7,5.8-8.7,5.8-13.9v-55.3c0-5.2-2.1-10.1-5.7-13.8l-55.9-55.9c-3.7-3.7-8.6-5.7-13.8-5.7h-55.3c-5.2,0-10.2,2.1-13.9,5.8 l-61.5,62c-0.6-5.6-0.9-11.3-0.9-17c0-50.9,23.7-97.1,65.1-126.8c41.5-29.8,92.9-37.6,141.1-21.3c7,2.4,14.8,0.5,20-4.7 c1.1-1.1,386.3-386.3,386.6-386.6c5.2-5.2,7.1-13,4.7-20c-16.2-48.2-8.5-99.6,21.3-141.1c29.7-41.4,76-65.1,126.8-65.1 c5.9,0,11.7,0.3,17.5,1l-60.7,61.7c-3.6,3.7-5.6,8.6-5.6,13.7v55.3c0,5.1,2,9.9,5.5,13.6l54,55.9c3.7,3.8,8.8,6,14.1,6h55.3 c5.2,0,10.2-2.1,13.9-5.8l61.5-62c0.6,5.6,0.9,11.3,0.9,17C962.9,281.5,892.8,351.6,806.6,351.6z"></path> <path d="M610.3,364L365.9,608.4c-7.6,7.6-7.6,20,0,27.6c7.6,7.6,20,7.6,27.6,0L638,391.6c7.6-7.6,7.6-20,0-27.6S618,356.3,610.3,364 z"></path> <path d="M857.1,882.8c7.6,7.6,20,7.6,27.6,0c7.6-7.6,7.6-20,0-27.6l-176-175.5c-7.6-7.6-20-7.6-27.6,0c-7.6,7.6-7.6,20,0,27.6 L857.1,882.8z"></path> </svg> 