<?xml version="1.0" encoding="UTF-8"?> <!-- Generator: Adobe Illustrator 18.1.0, SVG Export Plug-In . SVG Version: 6.00 Build 0) --> <svg xmlns="http://www.w3.org/2000/svg" xmlns:xlink="http://www.w3.org/1999/xlink" id="Слой_1" x="0px" y="0px" viewBox="-251 253 496 496" xml:space="preserve"> <path fill="#0CBABA" d="M-122.6,454.1v-43.6h296.8v52.7h-296.8V454.1z"></path> <path fill="#087EE1" d="M106,705L106,705c0,19.9-17.1,36-38.1,36h-272.5c-21,0-38.1-16.1-38.1-36V333c0-19.9,17-35.9,38-36v372 c0,19.9,17.1,36,38.1,36H106z"></path> <g> <path d="M-251,705c0,24.3,21,44,46.4,44H67.9c22.8,0,41.7-15.8,45.4-36.6C135.2,709,152,690.8,152,669V471h22.1 c1.5,0,3.1-0.4,4.4-1.2l40.5-26.3c2.3-1.5,3.6-4,3.6-6.7s-1.4-5.2-3.6-6.7l-40.5-26.6c-1.3-0.9-2.8-1.4-4.4-1.5H152v-43.6 c0-2.1-0.8-4.1-2.3-5.6l-0.4-0.4c-0.1-0.1-0.3-0.3-0.4-0.4l-92.7-94.5c-0.5-0.7-1.1-1.3-1.8-1.9l-0.3-0.3c-1.5-1.5-3.6-2.4-5.7-2.4 h-215c-22.8,0-41.9,15.8-45.6,36.6C-234.1,293-251,311.2-251,333V705z M-115,455v-37h281v37H-115z M182,448.4v-23.2l17.9,11.6 L182,448.4z M58,281.8l66.3,68.2H68.7c-2.8,0.1-5.5-1-7.5-2.9c-2-1.9-3.2-4.6-3.2-7.3V281.8z M-166.6,269H42v70.8 c0.1,14.6,12.1,26.4,26.7,26.3H136v36h-258.6c-4.6,0.2-8.2,3.9-8.4,8.4v1l-24-0.2c-2.1,0-4.1,0.8-5.6,2.3c-1.5,1.5-2.3,3.6-2.3,5.7 l0.3,34.8c0,4.4,3.6,7.9,8,7.9h23.6v1.2c0,4.4,4,7.8,8.4,7.8h16.9l-0.1,12c-0.1,4.6,1.6,9,4.8,12.3c2.7,2.9,6.4,4.5,10.3,4.7H6.5 c4.4,0,8-3.6,8-8s-3.6-8-8-8h-96.2c0-1,0-0.5,0-0.6l0.1-12.4H136v198c0,15.4-13.5,28-30,28h-272.6c-16.6,0-30.4-12.5-30.4-28V298.3 c0-0.4,0.3-0.8,0.3-1.3c0-0.4,0-0.7,0-1.1C-196.1,281-182.8,269-166.6,269z M-131,446h-15.7l-0.3-18.7l16,0.2V446z M-235,333 c0-12.8,10-23.7,22-27v363c0,24.3,21,44,46.4,44H96.8c-3.7,12-15.2,20-28.8,20h-272.5c-16.6,0-30.4-12.5-30.4-28V333z"></path> <path d="M-154.5,537H-23c4.4,0,8-3.6,8-8s-3.6-8-8-8h-131.5c-4.4,0-8,3.6-8,8S-159,537-154.5,537z"></path> <path d="M-154.5,576H74.4c4.4,0,8-3.6,8-8s-3.6-8-8-8h-228.9c-4.4,0-8,3.6-8,8S-159,576-154.5,576z"></path> <path d="M-154.5,615H74.4c4.4,0,8-3.6,8-8s-3.6-8-8-8h-228.9c-4.4,0-8,3.6-8,8S-159,615-154.5,615z"></path> <path d="M-154.5,654H74.4c4.4,0,8-3.6,8-8s-3.6-8-8-8h-228.9c-4.4,0-8,3.6-8,8S-159,654-154.5,654z"></path> </g> </svg> 