<?xml version="1.0" encoding="UTF-8"?> <!-- Generator: Adobe Illustrator 18.1.0, SVG Export Plug-In . SVG Version: 6.00 Build 0) --> <svg xmlns="http://www.w3.org/2000/svg" xmlns:xlink="http://www.w3.org/1999/xlink" id="Capa_1" x="0px" y="0px" viewBox="0 0 1000 1000" xml:space="preserve"> <polygon fill="#087EE1" points="282,242 292,138 316,88 386,48 490,32 580,32 660,64 708,122 720,242 "></polygon> <path d="M281.7,260.1h439.2c7.4,0,13.4-6,13.4-13.4c0-102.2-0.1-207.6-180.1-224.3C553.2,10,529.8,0,501.3,0s-51.9,10-52.9,22.4 c-180,16.7-180.1,122-180.1,224.3C268.3,254.1,274.3,260.1,281.7,260.1z M501.3,46.8c197.9,0,205.9,81.2,206.2,186.5H588.7 c-1-20.4-24.5-37-53.4-37h-68.2c-28.8,0-52.4,16.5-53.4,37H295.1C295.4,128,303.4,46.8,501.3,46.8z M446.5,135.6l5.2-9.1l-5.2-9.1 h-18.2c-7.4,0-13.4-6-13.4-13.4s6-13.4,13.4-13.4h25.9c4.8,0,9.2,2.5,11.6,6.7l9.1,15.8h52.7l9.1-15.8c2.4-4.2,6.8-6.7,11.6-6.7 h25.9c7.4,0,13.4,6,13.4,13.4s-6,13.4-13.4,13.4H556l-5.2,9.1l5.2,9.1h18.2c7.4,0,13.4,6,13.4,13.4s-6,13.4-13.4,13.4h-25.9 c-4.8,0-9.2-2.5-11.6-6.7l-9.1-15.8h-52.7l-9.1,15.8c-2.4,4.2-6.8,6.7-11.6,6.7h-25.9c-7.4,0-13.4-6-13.4-13.4s6-13.4,13.4-13.4 H446.5z M229.9,326.1c0.3-10.2,1.2-41.1,22.6-49.2c21.2-8,43.5,14.2,47.7,18.7c5,5.4,4.8,13.9-0.6,18.9s-13.9,4.8-18.9-0.6 c-6.6-7-16.1-12.6-18.8-12c0.1,0-4.6,3.7-5.3,24.9c-1.7,59.4,44.7,75.5,45.1,75.7c4.2,1.4,7.5,4.8,8.7,9.2l0.7,2.6 c0.2,0.8,0.4,1.6,0.4,2.4c12.8,152.1,133.3,201.4,189.7,201.4s176.9-49.2,189.7-201.4c0.1-0.8,0.2-1.6,0.4-2.4l0.7-2.6 c1.2-4.3,4.4-7.8,8.7-9.2c1.8-0.6,46.9-17,45.1-75.7c-0.6-21.3-5.4-25-5.4-25c-2.9-0.7-12.7,5.7-18.6,12c-5,5.4-13.5,5.7-18.9,0.6 s-5.7-13.5-0.6-18.9c4.2-4.5,26.5-26.8,47.7-18.7c21.4,8.1,22.3,39.1,22.6,49.2c1.7,56.5-32.1,87.3-55.6,98.6 c-15.6,151.8-134.9,220.1-215.8,220.1S301,576.5,285.5,424.8C262,413.5,228.2,382.6,229.9,326.1z M315.4,644.1 c-43.1,15.8-231.1,98.2-231.1,333.8c0,7.4-6,13.4-13.4,13.4s-13.4-6-13.4-13.4c0-267.4,232.2-353.4,256.4-361.6l-1-18.6 c-0.4-7.4,5.3-13.7,12.6-14.1c7.3-0.3,13.7,5.2,14.1,12.6l5.1,93l60.1-28.2c6.7-3.1,14.7-0.3,17.8,6.4c3.1,6.7,0.3,14.7-6.4,17.8 l-78,36.6c-1.8,0.8-3.7,1.3-5.7,1.3c-2.4,0-4.8-0.6-6.9-1.9c-3.8-2.3-6.3-6.3-6.5-10.8L315.4,644.1z M256.6,933.1v44.8 c0,7.4-6,13.4-13.4,13.4s-13.4-6-13.4-13.4v-44.8c0-7.4,6-13.4,13.4-13.4S256.6,925.7,256.6,933.1z M942.5,977.9 c0,7.4-6,13.4-13.4,13.4s-13.4-6-13.4-13.4c0-227.9-183.1-314.8-231.1-333.6l-3.6,66.3c-0.2,4.4-2.7,8.5-6.5,10.8 c-2.1,1.3-4.5,1.9-6.9,1.9c-1.9,0-3.9-0.4-5.7-1.3l-78-36.6c-6.7-3.1-9.6-11.1-6.4-17.8c3.1-6.7,11.1-9.6,17.8-6.4l60.1,28.2l5.1-93 c0.4-7.4,6.7-13,14.1-12.6c7.4,0.4,13,6.7,12.6,14.1l-1,18.5C722.5,629.3,942.5,719.2,942.5,977.9z M770.2,933.1v44.8 c0,7.4-6,13.4-13.4,13.4s-13.4-6-13.4-13.4v-44.8c0-7.4,6-13.4,13.4-13.4C764.2,919.7,770.2,925.7,770.2,933.1z M526.4,325.9 c-3.9,0-7.6,1.7-10.2,4.7c-1.1,1.3-1.8,2.8-2.4,4.4h-25.2c-0.5-1.6-1.3-3.1-2.4-4.4c-2.5-3-6.3-4.7-10.2-4.7H346.4 c-3.6,0-7,1.4-9.5,4s-3.9,6-3.8,9.6c0.2,10.7,2.2,65.1,24.4,83.1c13.9,11.3,35.7,18.3,56.9,18.3c20,0,36.8-6.3,47.1-17.6 c11.9-13,19.8-41.4,24.1-61.5H517c4.3,20.1,12.2,48.5,24.1,61.5c10.4,11.4,27.1,17.6,47.1,17.6c21.2,0,43-7,56.9-18.3 c22.1-18,24.2-72.3,24.4-83.1c0.1-3.6-1.3-7.1-3.8-9.6c-2.5-2.6-6-4-9.5-4H526.4z M441.7,405.3c-5.2,5.7-15.1,8.9-27.4,8.9 c-14.9,0-30.9-5-40-12.3c-6.7-5.4-11.9-27.5-13.8-49.1h99.6C455.7,373.5,448.7,397.5,441.7,405.3z M628.2,401.8 c-9.1,7.4-25.2,12.3-40,12.3c-12.2,0-22.2-3.3-27.4-8.9c-7-7.7-14.1-31.8-18.4-52.5H642C640.1,374.3,634.9,396.4,628.2,401.8z M520,691.4v295.2c0,7.4-6,13.4-13.4,13.4s-13.4-6-13.4-13.4V691.4c0-7.4,6-13.4,13.4-13.4S520,684,520,691.4z"></path> <path fill="#0CBABA" d="M442.1,885.5c0,7.4-6,13.4-13.4,13.4h-125c-7.4,0-13.4-6-13.4-13.4s6-13.4,13.4-13.4h125 C436.1,872.2,442.1,878.2,442.1,885.5z"></path> </svg> 