<?xml version="1.0" encoding="UTF-8"?> <!-- Generator: Adobe Illustrator 18.1.0, SVG Export Plug-In . SVG Version: 6.00 Build 0) --> <svg xmlns="http://www.w3.org/2000/svg" xmlns:xlink="http://www.w3.org/1999/xlink" id="icons" x="0px" y="0px" viewBox="-243 245 512 512" xml:space="preserve"> <path fill="#087EE1" d="M-123,685c48.5,0,88-39.5,88-88s-39.5-88-88-88s-88,39.5-88,88S-171.5,685-123,685z"></path> <path d="M261,285h-496c-4.4,0-8,3.6-8,8v416c0,4.4,3.6,8,8,8h496c4.4,0,8-3.6,8-8V293C269,288.6,265.4,285,261,285z M253,701h-480 V301h480V701z"></path> <path fill="#087EE1" d="M69,685c48.5,0,88-39.5,88-88s-39.5-88-88-88s-88,39.5-88,88S20.5,685,69,685z"></path> <path fill="#087EE1" d="M69,493c48.5,0,88-39.5,88-88s-39.5-88-88-88s-88,39.5-88,88S20.5,493,69,493z"></path> <path fill="#087EE1" d="M-123,493c48.5,0,88-39.5,88-88s-39.5-88-88-88s-88,39.5-88,88S-171.5,493-123,493z"></path> <path d="M-123,493c48.5,0,88-39.5,88-88s-39.5-88-88-88s-88,39.5-88,88S-171.5,493-123,493z M-123,333c39.7,0,72,32.3,72,72 s-32.3,72-72,72s-72-32.3-72-72S-162.7,333-123,333z"></path> <path d="M-123,453c26.5,0,48-21.5,48-48s-21.5-48-48-48s-48,21.5-48,48S-149.5,453-123,453z M-123,373c17.6,0,32,14.4,32,32 s-14.4,32-32,32s-32-14.4-32-32S-140.6,373-123,373z"></path> <path d="M69,453c26.5,0,48-21.5,48-48s-21.5-48-48-48s-48,21.5-48,48S42.5,453,69,453z M69,373c17.6,0,32,14.4,32,32s-14.4,32-32,32 s-32-14.4-32-32S51.4,373,69,373z"></path> <path d="M-123,645c26.5,0,48-21.5,48-48s-21.5-48-48-48s-48,21.5-48,48S-149.5,645-123,645z M-123,565c17.6,0,32,14.4,32,32 s-14.4,32-32,32s-32-14.4-32-32S-140.6,565-123,565z"></path> <path d="M69,645c26.5,0,48-21.5,48-48s-21.5-48-48-48s-48,21.5-48,48S42.5,645,69,645z M69,565c17.6,0,32,14.4,32,32s-14.4,32-32,32 s-32-14.4-32-32S51.4,565,69,565z"></path> <path d="M69,493c48.5,0,88-39.5,88-88s-39.5-88-88-88s-88,39.5-88,88S20.5,493,69,493z M69,333c39.7,0,72,32.3,72,72s-32.3,72-72,72 s-72-32.3-72-72S29.3,333,69,333z"></path> <path d="M-123,685c48.5,0,88-39.5,88-88s-39.5-88-88-88s-88,39.5-88,88S-171.5,685-123,685z M-123,525c39.7,0,72,32.3,72,72 s-32.3,72-72,72s-72-32.3-72-72S-162.7,525-123,525z"></path> <path d="M69,685c48.5,0,88-39.5,88-88s-39.5-88-88-88s-88,39.5-88,88S20.5,685,69,685z M69,525c39.7,0,72,32.3,72,72s-32.3,72-72,72 s-72-32.3-72-72S29.3,525,69,525z"></path> <circle fill="#0CBABA" cx="204.9" cy="368.6" r="10.4"></circle> <circle fill="#0CBABA" cx="204.9" cy="448.6" r="10.4"></circle> <circle fill="#0CBABA" cx="204.9" cy="528.6" r="10.4"></circle> <circle fill="#0CBABA" cx="204.9" cy="608.6" r="10.4"></circle> <path d="M205,657c13.3,0,24.1-10.8,24.1-24.1c0-0.1-0.1-0.2-0.1-0.4v-23.2c0-0.1,0-0.2,0-0.4c0-13.2-10.8-24-24-24s-24,10.8-24,24 c0,0.1,0,0.3,0,0.4v23.2c0,0.1-0.1,0.2-0.1,0.4C180.9,646.2,191.7,657,205,657z M205,641c-4.4,0-7.9-3.5-8-7.9c0-0.1,0-0.1,0-0.2 v-1.4c2.5,0.9,5.2,1.5,8,1.5s5.5-0.6,8-1.5v1.4c0,0.1,0,0.1,0,0.2C212.9,637.5,209.4,641,205,641z M205,601c4.4,0,7.9,3.5,8,7.9 c0,0,0,0,0,0.1v0.2c-0.1,4.3-3.6,7.8-8,7.8s-7.9-3.5-8-7.8v-0.2c0,0,0,0,0-0.1C197.1,604.5,200.6,601,205,601z"></path> <path d="M205,577c13.3,0,24.1-10.8,24.1-24.1c0-0.1-0.1-0.2-0.1-0.4v-23.2c0-0.1,0-0.2,0-0.4c0-13.2-10.8-24-24-24s-24,10.8-24,24 c0,0.1,0,0.3,0,0.4v23.2c0,0.1-0.1,0.2-0.1,0.4C180.9,566.2,191.7,577,205,577z M205,561c-4.4,0-7.9-3.5-8-7.9c0-0.1,0-0.1,0-0.2 v-1.4c2.5,0.9,5.2,1.5,8,1.5s5.5-0.6,8-1.5v1.4c0,0.1,0,0.1,0,0.2C212.9,557.5,209.4,561,205,561z M205,521c4.4,0,7.9,3.5,8,7.9 c0,0,0,0,0,0.1v0.2c-0.1,4.3-3.6,7.8-8,7.8s-7.9-3.5-8-7.8v-0.2c0,0,0,0,0-0.1C197.1,524.5,200.6,521,205,521z"></path> <path d="M205,497c13.3,0,24.1-10.8,24.1-24.1c0-0.1-0.1-0.2-0.1-0.4v-23.2c0-0.1,0-0.2,0-0.4c0-13.2-10.8-24-24-24s-24,10.8-24,24 c0,0.1,0,0.3,0,0.4v23.2c0,0.1-0.1,0.2-0.1,0.4C180.9,486.2,191.7,497,205,497z M205,481c-4.4,0-7.9-3.5-8-7.9c0-0.1,0-0.1,0-0.2 v-1.4c2.5,0.9,5.2,1.5,8,1.5s5.5-0.6,8-1.5v1.4c0,0.1,0,0.1,0,0.2C212.9,477.5,209.4,481,205,481z M205,441c4.4,0,7.9,3.5,8,7.9 c0,0,0,0,0,0.1v0.2c-0.1,4.3-3.6,7.8-8,7.8s-7.9-3.5-8-7.8v-0.2c0,0,0,0,0-0.1C197.1,444.5,200.6,441,205,441z"></path> <path d="M180.9,393c0,13.3,10.8,24.1,24.1,24.1s24.1-10.8,24.1-24.1c0-0.1-0.1-0.2-0.1-0.4v-23.2c0-0.1,0-0.2,0-0.4 c0-13.2-10.8-24-24-24s-24,10.8-24,24c0,0.1,0,0.3,0,0.4v23.2C181,392.7,180.9,392.8,180.9,393z M205,401c-4.4,0-7.9-3.5-8-7.9 c0-0.1,0-0.1,0-0.2v-1.4c2.5,0.9,5.2,1.5,8,1.5s5.5-0.6,8-1.5v1.4c0,0.1,0,0.1,0,0.2C212.9,397.5,209.4,401,205,401z M205,361 c4.4,0,7.9,3.5,8,7.9c0,0,0,0,0,0.1v0.2c-0.1,4.3-3.6,7.8-8,7.8s-7.9-3.5-8-7.8v-0.2c0,0,0,0,0-0.1C197.1,364.5,200.6,361,205,361z"></path> </svg> 