<?xml version="1.0" encoding="UTF-8"?> <!-- Generator: Adobe Illustrator 18.1.0, SVG Export Plug-In . SVG Version: 6.00 Build 0) --> <svg xmlns="http://www.w3.org/2000/svg" xmlns:xlink="http://www.w3.org/1999/xlink" id="Слой_1" x="0px" y="0px" viewBox="-243 245 512 512" xml:space="preserve"> <path fill="#0CBABA" d="M-163.6,284.8l74.4,74.4c5.2,5.2,5.2,13.6,0,18.8l-20,20l-93.2-93.2l20-20 C-177.2,279.6-168.8,279.6-163.6,284.8z"></path> <path fill="#0CBABA" d="M65.4,513.8l74.4,74.4c5.2,5.2,5.2,13.6,0,18.8l-20,20l-93.2-93.2l20-20C51.8,508.6,60.2,508.6,65.4,513.8z"></path> <path fill="#087EE1" d="M236.7,252.6H-11.8c-13.6,0-24.7,11.1-24.7,24.7v115.8c0,13.6,11,24.7,24.7,24.7H2.7v56.6l56.7-56.6h177.4 c13.6,0,24.7-11.1,24.7-24.7V277.3C261.4,263.6,250.4,252.6,236.7,252.6z"></path> <path d="M236.7,245h-48.1c-4.2,0-7.6,3.4-7.6,7.6c0,4.2,3.4,7.6,7.6,7.6h48.1c9.4,0,17.1,7.7,17.1,17.1v115.8 c0,9.4-7.7,17.1-17.1,17.1H59.3c-2,0-3.9,0.8-5.4,2.2l-43.7,43.7v-38.3c0-4.2-3.4-7.6-7.6-7.6h-14.4c-9.4,0-17.1-7.7-17.1-17.1 V277.3c0-9.4,7.7-17.1,17.1-17.1h175.1c4.2,0,7.6-3.4,7.6-7.6c0-4.2-3.4-7.6-7.6-7.6H-11.8c-17.8,0-32.3,14.5-32.3,32.3v115.8 c0,17.8,14.5,32.3,32.3,32.3h6.9v49.1c0,3.1,1.8,5.8,4.7,7c0.9,0.4,1.9,0.6,2.9,0.6c2,0,3.9-0.8,5.4-2.2l54.4-54.4h174.3 c17.8,0,32.3-14.5,32.3-32.3V277.3C269,259.5,254.5,245,236.7,245z"></path> <path d="M31.3,342.3c9-6.2,20.2-13.8,20.2-26.9c0-6.2-2.5-11.5-7.3-15.3c-4.2-3.4-10-5.3-15.9-5.3c-10.9,0-22.5,6.7-22.5,19.1 c0,5.5,2.3,8.2,7.1,8.2c5.4,0,8.3-3,8.3-5.8c0-4.6,2.7-7.3,7.3-7.3c5.5,0,7.4,3.7,7.4,6.9c0,5.9-6.9,11-14.3,16.4 c-8.3,6.1-16.9,12.4-16.9,20.6v9.6c0,3,4.1,4.9,6.9,4.9h35.3c2.5,0,4.8-3.3,4.8-7c0-3.6-2.2-6.8-4.8-6.8H20.9v-0.8 C20.9,349.5,25.7,346.2,31.3,342.3z"></path> <path d="M93.5,367.4c5.4,0,7.9-2.5,7.9-4.9v-10.4h4.1c2.5,0,4.9-3.6,4.9-7.3c0-5-2.5-7.3-4.9-7.3h-4.1v-6.8c0-2.2-2.1-4.8-7.9-4.8 s-7.9,2.6-7.9,4.8v6.8h-8.2l17.4-35c0.3-0.6,0.5-1.3,0.5-1.9c0-1.6-1-3.2-2.9-4.4c-1.5-1-3.5-1.6-4.9-1.6c-2.9,0-5.2,1.4-6.6,4 l-22.9,44.9c-0.7,1.3-0.8,2.5-0.8,3c0,3.3,2.1,5.5,5.3,5.5h23.1v10.4C85.6,364.9,88.1,367.4,93.5,367.4z"></path> <path d="M152.7,293.2l-34.8,71.4c-0.3,0.6-0.5,1.4-0.5,1.9c0,2.6,2.3,5.4,5.7,5.4c2,0,3.9-1.1,4.6-2.5l34.9-71.4 c0.3-0.7,0.4-1.4,0.4-1.9c0-3.2-3.1-5.4-6-5.4C155,290.7,153.4,291.6,152.7,293.2z"></path> <path d="M179.2,319.9c4.3,0,8-2.2,8-4.9v-6.5h17.5v6.8l-24.4,42.2c-0.5,0.9-0.7,1.7-0.7,2.6c0,4.7,5.2,7.9,9.9,7.9 c2.2,0,3.7-0.7,4.5-2.1l23.2-44.4c0.7-1.4,3.2-6.2,3.2-9.5v-12.4c0-2.1-3.3-4.9-6.9-4.9h-35.2c-3.5,0-6.9,2.4-6.9,4.9V315 C171.5,317.7,175,319.9,179.2,319.9z"></path> <path d="M70.8,508.4c-3.9-3.9-9.2-6.1-14.8-6.1s-10.8,2.2-14.8,6.1l-46.4,46.4c-18.5-9.7-34.5-18.9-52.5-34c-3.2-2.7-8-2.3-10.7,0.9 c-2.7,3.2-2.3,8,0.9,10.7c20.7,17.5,38.8,27.3,60.2,38.4c2.9,1.5,6.5,1,8.8-1.4l25-24.9l82.3,82.3c-26.6,22.8-64.2,30.8-106.9,22.4 c-48-9.4-98.9-39-143.2-83.3s-73.9-95.1-83.3-143.2c-8.4-42.7-0.5-80.4,22.3-106.9l82.3,82.3l-25,25c-2.3,2.3-2.9,5.9-1.4,8.9 c15.1,29.2,27.3,50.7,57.8,81.2c3,3,7.8,3,10.7,0c3-3,3-7.8,0-10.7c-27.4-27.4-38.9-46.3-52.5-72.5l46.4-46.4 c3.9-3.9,6.1-9.2,6.1-14.8s-2.2-10.8-6.1-14.8l-74.4-74.4c-3.9-3.9-9.2-6.1-14.8-6.1s-10.8,2.2-14.8,6.1l-20,20 c-30.4,30.4-41.7,75.2-31.7,126.2c10,51,41.1,104.6,87.5,151C-105.6,622.9-52,654-1,664c12.1,2.4,23.9,3.6,35.2,3.6 c36.2,0,67.7-12,90.9-35.2l20-20c3.9-3.9,6.1-9.2,6.1-14.8s-2.2-10.8-6.1-14.8L70.8,508.4z M-177,290.2c1.1-1.1,2.5-1.7,4-1.7 s3,0.6,4,1.7l74.4,74.4c1.1,1.1,1.7,2.5,1.7,4s-0.6,3-1.7,4l-14.6,14.6l-82.5-82.5L-177,290.2z M134.4,601.6l-14.6,14.6l-82.5-82.5 l14.6-14.6c1.1-1.1,2.5-1.7,4-1.7s3,0.6,4,1.7l74.4,74.4C136.6,595.8,136.6,599.4,134.4,601.6z"></path> </svg> 